<svg id="e9321c55-7aa4-4d8e-a3d7-7280e303cff0" data-name="Layer 1" xmlns="http://www.w3.org/2000/svg" width="1036" height="591.05128" viewBox="0 0 1036 591.05128"><title>preparation</title><path d="M1118,209.81624c-44.54508,152.29867-37.33631,323.11768,0,504.718q-59.93521-9.71256-119.59379-17.46593-10.57583-1.36143-21.14064-2.66745-14.85921-1.84285-29.6964-3.553c-.7748-.09958-1.5496-.18815-2.31332-.26563-7.13912-.83013-14.27817-1.616-21.41728-2.40182Q821.11851,677.04,719.28391,672.2419C503.57231,662.24719,290.9156,674.677,82,714.53419c37.64817-186.31737,52.90073-361.88071,0-504.71795C366.35046,250.02237,726.13585,240.4941,1118,209.81624Z" transform="translate(-82 -154.47436)" fill="#6c63ff"/><path d="M937.353,599.06888c-9.076-70.07389-19.29217-140.668-30.52653-210.85256q-7.57077-47.18446-15.71711-94.03695l-.16605-.95186-.96295.04424q-16.65231.6143-33.42651.797-9.09816.11624-18.18533.12174c-19.9784.04425-39.91256-.18815-59.47036-.40953-20.02272-.23246-40.3-.46485-60.67685-.39844-13.271.04425-26.58626.2103-39.8904.58659-20.63147.58665-41.26294,1.67133-61.72836,3.57513-21.12956,1.95906-42.5136,4.82579-63.2004,7.604-23.55353,3.16554-47.904,6.43072-71.97768,8.36769-44.25134,3.564-89.36606,2.77817-132.99758,2.02546-23.54245-.40952-47.8818-.83013-71.8227-.56443-1.04043.011-2.47931-.07749-4.13957-.19929-6.09868-.42054-14.45529-1.00719-16.9346,3.01063-1.69349,2.72285.2988,11.04622,2.85559,20.8307.66415,2.52355,1.23966,4.71514,1.40571,5.78874,2.6232,16.20411,4.70406,32.71811,6.20934,49.0772a732.2906,732.2906,0,0,1,2.24692,101.10959A725.3373,725.3373,0,0,1,254.2793,606.0641l-.24354,1.18433,1.1954.14389c84.8059,10.08328,173.45248,16.06016,263.49376,17.76473,13.448.25455,26.11026.39845,38.14165.40953,1.16217.01107,2.31325.01107,3.45333.01107,9.48554,0,18.58378-.07748,27.361-.22138q8.45076-.14946,16.52508-.38743c9.79555-.2988,19.21468-.69725,28.39041-1.20641.74156-.03324,1.47211-.07749,2.2026-.12174q3.90156-.21585,7.75894-.47593,6.226-.39855,12.3412-.87445c28.30184-2.19151,56.95789-5.73341,84.89446-9.29739q4.69855-.61429,9.36387-1.20649c2.10295-.26563,4.206-.54234,6.32-.808,42.10414-5.40137,85.138-10.70316,128.13861-11.75461,1.66025-.04431,3.33159-.08856,4.99185-.11072q12.95-.23245,25.87786.13282,10.85805.29883,21.694,1.07366l1.35038.08857ZM913.3457,596.988q-12.46843-.33207-24.937-.08857c-1.92588.02216-3.84076.06641-5.76664.12174-44.95974,1.16223-89.89732,6.93989-133.77238,12.57373l-4.6819.59767c-1.18433.155-2.37973.30994-3.56406.46485-28.25752,3.61938-57.26776,7.2166-85.89057,9.43028-3.2541.25455-6.51929.487-9.81764.70839-3.398.23239-6.81816.44269-10.28257.642-.73048.04425-1.472.0885-2.21367.13282-9.21991.498-18.70552.89653-28.5564,1.18426q-9.64608.29894-19.79026.44276c-8.77721.13281-17.88647.18814-27.38315.155-11.96491-.02216-24.56073-.155-37.92027-.40952-89.54312-1.6935-177.71384-7.62613-262.077-17.60983a728.74349,728.74349,0,0,0,13.76906-110.62836,733.26729,733.26729,0,0,0-2.258-101.41954c-1.50528-16.41442-3.59722-32.97273-6.22042-49.23218-.19923-1.18433-.75264-3.30943-1.45-5.999-1.45-5.501-4.44944-16.96784-3.12129-19.104,1.78206-2.87775,9.67375-2.32433,14.90914-1.95912,1.70451.11072,3.16554.2103,4.30561.19929,23.90767-.2657,48.23594.1549,71.76732.56443,43.67583.75271,88.84587,1.53852,133.20794-2.03655,24.12905-1.937,48.51265-5.21323,72.09935-8.37877,20.65363-2.76709,42.01558-5.63383,63.11191-7.59289,1.616-.155,3.22086-.29886,4.83687-.43168.74156-.06641,1.48319-.13281,2.21368-.18814,17.72048-1.48319,35.56269-2.39081,53.40491-2.911,13.72481-.39845,27.44956-.57558,41.13006-.61983,20.29943-.0664,40.52137.166,60.47762.39845,19.50247.23246,39.35914.45377,59.27114.40952,6.143-.01108,12.28594-.04425,18.42887-.13281q16.30374-.18261,32.5189-.75264,7.853,45.159,15.16369,90.72744c11.31184,70.4724,21.60542,141.37642,30.72582,211.76018Q924.17615,597.24264,913.3457,596.988Z" transform="translate(-82 -154.47436)" fill="#f2f2f2"/><path d="M431.12782,618.84894c-3.8134-27.2375-.39453-55.03058,2.91193-81.90814,1.76673-14.364,3.59344-29.21662,4.29657-43.81467,1.48244-30.77365-1.96291-62.01263-5.29531-92.22313-3.0076-27.26831-6.11734-55.46511-5.61958-83.33277l2.21367.04c-.49559,27.72607,2.60658,55.851,5.60607,83.05012,3.34159,30.29589,6.79721,61.6235,5.30666,92.57226-.70745,14.68019-2.53957,29.5744-4.31116,43.97842-3.28862,26.736-6.68966,54.38205-2.91679,81.331Z" transform="translate(-82 -154.47436)" fill="#f2f2f2"/><path d="M632.8052,626.49844c-8.57583-108.87974-12.32654-219.46028-11.1462-328.66861l2.21367.02378c-1.17926,109.14294,2.56821,219.657,11.13972,328.47189Z" transform="translate(-82 -154.47436)" fill="#f2f2f2"/><path d="M299.93351,349.12375,299.7,346.922a604.70983,604.70983,0,0,1,81.06451-3.093l-.06486,2.21259A602.23329,602.23329,0,0,0,299.93351,349.12375Z" transform="translate(-82 -154.47436)" fill="#f2f2f2"/><path d="M489.95613,339.54107l-.06269-2.2126c13.24692-.37345,26.94458-.75987,40.25851-2.63955,14.93583-2.10883,29.75545-6.14489,44.087-10.048l.58153,2.13585c-14.39754,3.92095-29.2858,7.97594-44.35944,10.10422C517.02447,338.77795,503.26358,339.166,489.95613,339.54107Z" transform="translate(-82 -154.47436)" fill="#f2f2f2"/><path d="M811.15522,324.20261c-1.63864,0-3.26972-.01351-4.89106-.027l-126.21732-1.04523.0173-2.21367,126.21731,1.04522c8.685.07242,17.65644.14592,26.20093-1.89751l.5145,2.15314C825.81109,323.93617,818.41992,324.20261,811.15522,324.20261Z" transform="translate(-82 -154.47436)" fill="#f2f2f2"/><path d="M337.67947,458.85471H287.8718c5.60247-22.98548,10.98434-44.44489,0-59.76923h49.80767Q351.74179,429.00144,337.67947,458.85471Z" transform="translate(-82 -154.47436)" fill="#f2f2f2"/><path d="M569.6795,569.85468H519.87177c-3.11512-27.7071,3.75787-48.359,0-59.7692H569.6795A311.81139,311.81139,0,0,0,569.6795,569.85468Z" transform="translate(-82 -154.47436)" fill="#f2f2f2"/><path d="M511.453,485.4188h-49.8077c1.86759-22.98178,7.8891-44.44186,0-59.76922H511.453Q525.51942,455.53419,511.453,485.4188Z" transform="translate(-82 -154.47436)" fill="#f2f2f2"/><path d="M562.36752,434.50427h49.80769c3.115-22.98593-3.75787-44.4453,0-59.76923H562.36752Q548.30109,404.61966,562.36752,434.50427Z" transform="translate(-82 -154.47436)" fill="#3f3d56"/><path d="M949.76068,745.52564h49.8077c3.115-22.98593-3.75787-44.4453,0-59.76923h-49.8077Q935.69427,715.641,949.76068,745.52564Z" transform="translate(-82 -154.47436)" fill="#3f3d56"/><path d="M336.57265,560.68376h49.80769c3.115-22.98593-3.75787-44.4453,0-59.76923H336.57265Q322.50622,530.79915,336.57265,560.68376Z" transform="translate(-82 -154.47436)" fill="#3f3d56"/><path d="M843.14623,237.67172c-23.32527-39.41248-69.47245-41.24928-69.47245-41.24928S728.706,190.672,699.85942,250.6977c-26.8873,55.94889-63.99519,109.96869-5.97407,123.06591l10.4803-32.61938,6.49039,35.04786a227.02168,227.02168,0,0,0,24.82508.42428c62.13593-2.00612,121.311.58693,119.40567-21.71005C852.554,325.26563,865.58982,275.59442,843.14623,237.67172Z" transform="translate(-82 -154.47436)" fill="#2f2e41"/><circle cx="696.32111" cy="135.05365" r="60.22663" fill="#a0616a"/><path d="M753.683,328.76657s27.37573,63.87672-9.12525,76.65207l36.501,120.45325,62.05168-3.6501,16.42544-40.15108-3.65009-60.22663L850.41056,381.693s-38.326,9.12525-34.67594-58.40157Z" transform="translate(-82 -154.47436)" fill="#a0616a"/><path d="M739.08255,403.59359s-60.22662-5.47515-54.75148,38.326,10.9503,52.92643,10.9503,52.92643l5.47515,65.70177-32.85089,20.07555H636.87979S541.97723,602.524,589.42851,626.2496s63.87673-18.25049,63.87673-18.25049,87.60236,0,93.07751-14.6004S739.08255,403.59359,739.08255,403.59359Z" transform="translate(-82 -154.47436)" fill="#a0616a"/><path d="M855.88571,385.34309s56.57652-20.07554,60.22662,23.72564,3.6501,47.45129,3.6501,47.45129l10.9503,62.05167s21.90059,54.75148,21.90059,71.17692,16.42544,67.52683,16.42544,67.52683,21.90059,71.17692-1.82505,69.35187S939.838,649.97524,939.838,649.97524l-49.27633-98.55266L875.96125,491.196Z" transform="translate(-82 -154.47436)" fill="#a0616a"/><path d="M748.2078,396.29339H733.6074l-1.82505,76.65207s-23.72564,32.85089,5.47515,62.05167l7.3002,47.45129,133.2286-5.47515,9.12524-49.27633s18.2505-40.15109-7.30019-76.65207l-23.72564-74.827H843.11036s29.58893,109.098-32.85089,111.328C759.15809,489.3709,748.2078,396.29339,748.2078,396.29339Z" transform="translate(-82 -154.47436)" fill="#d0cde1"/><path d="M923.83857,688.18039Q821.11851,677.04,719.28391,672.2419c10.36-30.34947,17.7979-51.57861,20.50967-59.249.36527-1.02942.642-1.80415.83012-2.33548.11073-.34312.19923-.58659.24354-.70833a.90617.90617,0,0,0,.04425-.1218l4.41627-14.732,1.85948-6.20934,1.99237-6.63,2.67852-8.93218L870.489,569.67128l3.32051,7.47115,8.83255,19.87876.974,2.20266,1.47211,3.29836a9.97466,9.97466,0,0,1,2.756,1.295C898.75759,610.96739,911.1431,642.44585,923.83857,688.18039Z" transform="translate(-82 -154.47436)" fill="#2f2e41"/><path d="M883.26144,555.07268l-144.17889,5.47514s-6.58031,49.27634,0,49.27634c1.82505,0,151.47909,12.77534,149.654-9.12525S883.26144,555.07268,883.26144,555.07268Z" transform="translate(-82 -154.47436)" fill="#3f3d56"/><circle cx="697.32171" cy="42.14771" r="33.36694" fill="#2f2e41"/><path d="M742.44246,187.8413a33.36822,33.36822,0,0,1,29.85463-33.17936,33.36694,33.36694,0,1,0,0,66.35871A33.36821,33.36821,0,0,1,742.44246,187.8413Z" transform="translate(-82 -154.47436)" fill="#2f2e41"/><polygon points="750.834 79.398 705.243 55.517 642.283 65.286 629.257 122.818 661.683 121.571 670.742 100.435 670.742 121.223 685.704 120.647 694.388 86.997 699.815 122.818 753.005 121.733 750.834 79.398" fill="#2f2e41"/><path d="M590.78632,678.61966H540.97863c9.43913-22.99026,14.16484-44.44888,0-59.76923h49.80769Q604.85275,648.735,590.78632,678.61966Z" transform="translate(-82 -154.47436)" fill="#f2f2f2"/></svg>